HIERARCHY
ROOT Root
{
OFFSET 0.000000 0.000000 0.000000
  CHANNELS 6 Xposition Yposition Zposition Zrotation Yrotation Xrotation
 JOINT Hips
 {
   OFFSET 0.594821 84.541710 -2.944532
   CHANNELS 6 Xposition Yposition Zposition Zrotation Yrotation Xrotation
  JOINT Spine1
  {
    OFFSET 4.892267 0.609750 0.036993
    CHANNELS 3 Zrotation Yrotation Xrotation
   JOINT Spine2
   {
     OFFSET 7.038217 -0.000001 -0.000000
     CHANNELS 3 Zrotation Yrotation Xrotation
    JOINT Chest
    {
      OFFSET 7.277765 -0.000001 0.000000
      CHANNELS 3 Zrotation Yrotation Xrotation
     JOINT Neck1
     {
       OFFSET 25.804798 -0.747576 -0.189840
       CHANNELS 3 Zrotation Yrotation Xrotation
      JOINT Neck2
      {
        OFFSET 8.326619 0.000001 -0.000000
        CHANNELS 3 Zrotation Yrotation Xrotation
       JOINT Head
       {
         OFFSET 7.125397 -0.000003 -0.000000
         CHANNELS 3 Zrotation Yrotation Xrotation
        JOINT HeadEnd
        {
          OFFSET 15.988763 0.335468 0.004877
          CHANNELS 3 Zrotation Yrotation Xrotation
        }
        JOINT Jaw
        {
          OFFSET 0.176840 3.272926 0.004399
          CHANNELS 3 Zrotation Yrotation Xrotation
        }
        JOINT LeftEye
        {
          OFFSET 4.815361 8.376959 3.175885
          CHANNELS 3 Zrotation Yrotation Xrotation
        }
        JOINT RightEye
        {
          OFFSET 4.823730 8.367941 -3.216067
          CHANNELS 3 Zrotation Yrotation Xrotation
        }
       }
      }
     }
     JOINT LeftShoulder
     {
       OFFSET 22.103415 5.095519 1.664274
       CHANNELS 3 Zrotation Yrotation Xrotation
      JOINT LeftArm
      {
        OFFSET 17.654583 -0.000003 -0.000011
        CHANNELS 3 Zrotation Yrotation Xrotation
       JOINT LeftForeArm
       {
         OFFSET 23.454058 0.000001 -0.000004
         CHANNELS 3 Zrotation Yrotation Xrotation
        JOINT LeftHand
        {
          OFFSET 21.051907 -0.000012 -0.000004
          CHANNELS 3 Zrotation Yrotation Xrotation
         JOINT LeftHandThumb1
         {
           OFFSET 1.913067 3.202492 0.807102
           CHANNELS 3 Zrotation Yrotation Xrotation
          JOINT LeftHandThumb2
          {
            OFFSET 4.637976 -0.000004 -0.000007
            CHANNELS 3 Zrotation Yrotation Xrotation
           JOINT LeftHandThumb3
           {
             OFFSET 2.696896 0.000000 -0.000002
             CHANNELS 3 Zrotation Yrotation Xrotation
            JOINT LeftHandThumbEnd
            {
              OFFSET 3.104530 0.000000 -0.000005
              CHANNELS 3 Zrotation Yrotation Xrotation
            }
           }
          }
         }
         JOINT LeftHandIndex1
         {
           OFFSET 2.964790 2.248989 0.098108
           CHANNELS 3 Zrotation Yrotation Xrotation
          JOINT LeftHandIndex2
          {
            OFFSET 6.462582 0.000000 0.000000
            CHANNELS 3 Zrotation Yrotation Xrotation
           JOINT LeftHandIndex3
           {
             OFFSET 3.494663 0.000000 0.000008
             CHANNELS 3 Zrotation Yrotation Xrotation
            JOINT LeftHandIndex4
            {
              OFFSET 2.150105 0.000001 -0.000004
              CHANNELS 3 Zrotation Yrotation Xrotation
             JOINT LeftHandIndexEnd
             {
               OFFSET 2.558212 0.000001 0.000000
               CHANNELS 3 Zrotation Yrotation Xrotation
             }
            }
           }
          }
         }
         JOINT LeftHandMiddle1
         {
           OFFSET 2.907578 0.869682 -0.418736
           CHANNELS 3 Zrotation Yrotation Xrotation
          JOINT LeftHandMiddle2
          {
            OFFSET 6.269020 -0.000001 0.000000
            CHANNELS 3 Zrotation Yrotation Xrotation
           JOINT LeftHandMiddle3
           {
             OFFSET 4.182251 0.000001 -0.000004
             CHANNELS 3 Zrotation Yrotation Xrotation
            JOINT LeftHandMiddle4
            {
              OFFSET 2.848404 0.000000 0.000004
              CHANNELS 3 Zrotation Yrotation Xrotation
             JOINT LeftHandMiddleEnd
             {
               OFFSET 2.274055 0.000001 0.000004
               CHANNELS 3 Zrotation Yrotation Xrotation
             }
            }
           }
          }
         }
         JOINT LeftHandRing1
         {
           OFFSET 2.607491 -0.400562 0.133980
           CHANNELS 3 Zrotation Yrotation Xrotation
          JOINT LeftHandRing2
          {
            OFFSET 5.980968 -0.000005 0.000004
            CHANNELS 3 Zrotation Yrotation Xrotation
           JOINT LeftHandRing3
           {
             OFFSET 4.155861 0.000000 -0.000011
             CHANNELS 3 Zrotation Yrotation Xrotation
            JOINT LeftHandRing4
            {
              OFFSET 2.507309 0.000001 -0.000004
              CHANNELS 3 Zrotation Yrotation Xrotation
             JOINT LeftHandRingEnd
             {
               OFFSET 1.865700 -0.000000 -0.000004
               CHANNELS 3 Zrotation Yrotation Xrotation
             }
            }
           }
          }
         }
         JOINT LeftHandPinky1
         {
           OFFSET 2.560677 -1.670464 0.571522
           CHANNELS 3 Zrotation Yrotation Xrotation
          JOINT LeftHandPinky2
          {
            OFFSET 5.274361 -0.000002 -0.000004
            CHANNELS 3 Zrotation Yrotation Xrotation
           JOINT LeftHandPinky3
           {
             OFFSET 3.113903 0.000002 0.000000
             CHANNELS 3 Zrotation Yrotation Xrotation
            JOINT LeftHandPinky4
            {
              OFFSET 1.752151 0.000002 -0.000004
              CHANNELS 3 Zrotation Yrotation Xrotation
             JOINT LeftHandPinkyEnd
             {
               OFFSET 1.962662 0.000000 -0.000008
               CHANNELS 3 Zrotation Yrotation Xrotation
             }
            }
           }
          }
         }
        }
       }
      }
     }
     JOINT RightShoulder
     {
       OFFSET 22.057846 5.269290 -1.499558
       CHANNELS 3 Zrotation Yrotation Xrotation
      JOINT RightArm
      {
        OFFSET -17.711906 0.000000 0.000008
        CHANNELS 3 Zrotation Yrotation Xrotation
       JOINT RightForeArm
       {
         OFFSET -23.480457 -0.000006 -0.000006
         CHANNELS 3 Zrotation Yrotation Xrotation
        JOINT RightHand
        {
          OFFSET -21.058777 0.000005 0.000008
          CHANNELS 3 Zrotation Yrotation Xrotation
         JOINT RightHandThumb1
         {
           OFFSET -1.912724 -3.202814 -0.807251
           CHANNELS 3 Zrotation Yrotation Xrotation
          JOINT RightHandThumb2
          {
            OFFSET -4.638241 -0.000004 -0.000001
            CHANNELS 3 Zrotation Yrotation Xrotation
           JOINT RightHandThumb3
           {
             OFFSET -2.696867 0.000004 0.000003
             CHANNELS 3 Zrotation Yrotation Xrotation
            JOINT RightHandThumbEnd
            {
              OFFSET -3.105059 0.000004 0.000010
              CHANNELS 3 Zrotation Yrotation Xrotation
            }
           }
          }
         }
         JOINT RightHandIndex1
         {
           OFFSET -2.965199 -2.248661 -0.098625
           CHANNELS 3 Zrotation Yrotation Xrotation
          JOINT RightHandIndex2
          {
            OFFSET -6.462364 -0.000002 -0.000004
            CHANNELS 3 Zrotation Yrotation Xrotation
           JOINT RightHandIndex3
           {
             OFFSET -3.493851 0.000003 -0.000011
             CHANNELS 3 Zrotation Yrotation Xrotation
            JOINT RightHandIndex4
            {
              OFFSET -2.149513 0.000000 -0.000008
              CHANNELS 3 Zrotation Yrotation Xrotation
             JOINT RightHandIndexEnd
             {
               OFFSET -2.558094 0.000003 0.000004
               CHANNELS 3 Zrotation Yrotation Xrotation
             }
            }
           }
          }
         }
         JOINT RightHandMiddle1
         {
           OFFSET -2.907684 -0.869532 0.418941
           CHANNELS 3 Zrotation Yrotation Xrotation
          JOINT RightHandMiddle2
          {
            OFFSET -6.269367 -0.000001 0.000004
            CHANNELS 3 Zrotation Yrotation Xrotation
           JOINT RightHandMiddle3
           {
             OFFSET -4.181030 0.000000 0.000000
             CHANNELS 3 Zrotation Yrotation Xrotation
            JOINT RightHandMiddle4
            {
              OFFSET -2.847355 0.000002 -0.000008
              CHANNELS 3 Zrotation Yrotation Xrotation
             JOINT RightHandMiddleEnd
             {
               OFFSET -2.274467 -0.000002 0.000000
               CHANNELS 3 Zrotation Yrotation Xrotation
             }
            }
           }
          }
         }
         JOINT RightHandRing1
         {
           OFFSET -2.607334 0.400534 -0.133413
           CHANNELS 3 Zrotation Yrotation Xrotation
          JOINT RightHandRing2
          {
            OFFSET -5.981178 0.000000 0.000011
            CHANNELS 3 Zrotation Yrotation Xrotation
           JOINT RightHandRing3
           {
             OFFSET -4.155041 0.000000 -0.000004
             CHANNELS 3 Zrotation Yrotation Xrotation
            JOINT RightHandRing4
            {
              OFFSET -2.506302 -0.000000 0.000000
              CHANNELS 3 Zrotation Yrotation Xrotation
             JOINT RightHandRingEnd
             {
               OFFSET -1.866310 0.000001 -0.000004
               CHANNELS 3 Zrotation Yrotation Xrotation
             }
            }
           }
          }
         }
         JOINT RightHandPinky1
         {
           OFFSET -2.560246 1.670305 -0.571539
           CHANNELS 3 Zrotation Yrotation Xrotation
          JOINT RightHandPinky2
          {
            OFFSET -5.274315 -0.000001 0.000008
            CHANNELS 3 Zrotation Yrotation Xrotation
           JOINT RightHandPinky3
           {
             OFFSET -3.113098 -0.000001 0.000000
             CHANNELS 3 Zrotation Yrotation Xrotation
            JOINT RightHandPinky4
            {
              OFFSET -1.752003 0.000001 -0.000004
              CHANNELS 3 Zrotation Yrotation Xrotation
             JOINT RightHandPinkyEnd
             {
               OFFSET -1.963326 -0.000002 0.000008
               CHANNELS 3 Zrotation Yrotation Xrotation
             }
            }
           }
          }
         }
        }
       }
      }
     }
    }
   }
  }
  JOINT LeftLeg
  {
    OFFSET -7.909849 2.319270 9.524855
    CHANNELS 3 Zrotation Yrotation Xrotation
   JOINT LeftShin
   {
     OFFSET 36.106670 0.000000 0.000000
     CHANNELS 3 Zrotation Yrotation Xrotation
    JOINT LeftFoot
    {
      OFFSET 36.913761 0.000000 -0.000003
      CHANNELS 3 Zrotation Yrotation Xrotation
     JOINT LeftToeBase
     {
       OFFSET 14.743163 -0.000001 0.000001
       CHANNELS 3 Zrotation Yrotation Xrotation
      JOINT LeftToeEnd
      {
        OFFSET 7.177689 -0.125287 0.000002
        CHANNELS 3 Zrotation Yrotation Xrotation
      }
     }
    }
   }
  }
  JOINT RightLeg
  {
    OFFSET -7.836180 2.595992 -9.482594
    CHANNELS 3 Zrotation Yrotation Xrotation
   JOINT RightShin
   {
     OFFSET -36.112923 0.000002 0.000000
     CHANNELS 3 Zrotation Yrotation Xrotation
    JOINT RightFoot
    {
      OFFSET -36.913563 -0.000001 0.000000
      CHANNELS 3 Zrotation Yrotation Xrotation
     JOINT RightToeBase
     {
       OFFSET -14.740311 0.000001 0.000001
       CHANNELS 3 Zrotation Yrotation Xrotation
      JOINT RightToeEnd
      {
        OFFSET -7.180027 0.125329 -0.000002
        CHANNELS 3 Zrotation Yrotation Xrotation
      }
     }
    }
   }
  }
 }
}
MOTION
Frames: 4
Frame Time: 0.008333
0.000000 0.000000 0.000000 0.000000 0.000000 0.000000 0.594821 84.541710 -2.944532 88.391756 4.129697 79.808478 2.874001 0.779761 1.089401 5.325586 -0.347522 0.041146 2.917884 -1.635098 -1.822497 10.148583 0.970185 2.531748 -8.044188 0.608635 0.180862 -18.771237 0.365777 4.445206 0.000000 0.000000 0.000000 0.000000 0.000000 0.000000 0.000000 0.000000 0.000000 0.000000 0.000000 0.000000 -95.764830 -64.463737 101.396600 52.061626 -75.596517 -12.766602 18.235725 -0.323919 -0.319588 -4.187313 -7.008676 -0.132501 28.126116 -25.557656 50.290953 -17.715232 -16.513267 34.776931 0.000000 -25.538733 0.000000 0.000000 0.000000 0.000000 -0.658380 -0.225259 -3.112784 -4.579095 -16.242734 -0.789354 0.000000 -19.779147 0.000000 -7.063425 -18.085624 -4.518332 0.000000 0.000000 0.000000 -10.653335 -2.302934 -2.159360 13.699383 -23.587298 -1.405480 0.000000 -27.504436 0.000000 -3.675020 -23.768379 -3.876290 0.000000 0.000000 0.000000 -14.894677 -5.059497 -0.151217 21.162563 -21.035633 -3.116382 0.000000 -32.748650 0.000000 -0.399775 -19.648636 2.173004 0.000000 0.000000 0.000000 -18.446696 -16.045550 -0.883540 25.199499 -16.335262 0.966872 0.000000 -24.120000 0.000000 -4.054054 -19.395545 -5.878699 0.000000 0.000000 0.000000 62.062760 -69.018433 115.274446 7.955367 -68.411830 33.156617 30.347055 -0.646954 -0.854669 -8.189961 -1.672187 -16.073830 28.126116 -25.557656 50.290953 -17.715232 -16.513267 34.776931 0.000000 -25.538733 0.000000 0.000000 0.000000 0.000000 -0.658380 -0.225259 -3.112784 -4.579095 -16.242734 -0.789354 0.000000 -19.779147 0.000000 -7.063425 -18.085624 -4.518332 0.000000 0.000000 0.000000 -10.653335 -2.302934 -2.159360 13.699383 -23.587298 -1.405480 0.000000 -27.504436 0.000000 -3.675020 -23.768379 -3.876290 0.000000 0.000000 0.000000 -14.894677 -5.059497 -0.151217 21.162563 -21.035633 -3.116382 0.000000 -32.748650 0.000000 -0.399775 -19.648636 2.173004 0.000000 0.000000 0.000000 -18.446696 -16.045550 -0.883540 25.199499 -16.335262 0.966872 0.000000 -24.120000 0.000000 -4.054054 -19.395545 -5.878699 0.000000 0.000000 0.000000 -168.313987 0.452840 -10.591969 0.322299 0.000000 0.000000 -88.644163 -1.582736 -2.626311 2.607705 -0.132975 4.266084 0.000000 0.000000 0.000000 8.374218 2.109419 -12.985636 0.067771 0.000172 0.000000 -85.707314 5.825377 0.085250 1.586185 -0.126312 4.265856 0.000000 0.000000 0.000000
0.000000 0.000000 0.000000 0.000000 0.000000 0.000000 0.592758 84.543587 -2.951535 88.391823 4.131782 79.825085 2.876072 0.774993 1.089735 5.323445 -0.349409 0.052554 2.915260 -1.632751 -1.820654 10.137401 0.961215 2.533941 -8.056035 0.595476 0.184528 -18.781260 0.343767 4.446074 0.000000 0.000000 0.000000 0.000000 0.000000 0.000000 0.000000 0.000000 0.000000 0.000000 0.000000 0.000000 -95.804410 -64.459688 101.434161 52.117483 -75.428407 -13.036692 18.209074 -0.323848 -0.319406 -3.901261 -6.444990 -0.441342 28.126116 -25.557656 50.290953 -17.715232 -16.513267 34.776931 0.000000 -25.538733 0.000000 0.000000 0.000000 0.000000 -0.658380 -0.225259 -3.112784 -4.579095 -16.242734 -0.789354 0.000000 -19.779147 0.000000 -7.063425 -18.085624 -4.518332 0.000000 0.000000 0.000000 -10.653335 -2.302934 -2.159360 13.699383 -23.587298 -1.405480 0.000000 -27.504436 0.000000 -3.675020 -23.768379 -3.876290 0.000000 0.000000 0.000000 -14.894677 -5.059497 -0.151217 21.162563 -21.035633 -3.116382 0.000000 -32.748650 0.000000 -0.399775 -19.648636 2.173004 0.000000 0.000000 0.000000 -18.446696 -16.045550 -0.883540 25.199499 -16.335262 0.966872 0.000000 -24.120000 0.000000 -4.054054 -19.395545 -5.878699 0.000000 0.000000 0.000000 62.058136 -69.030111 115.261828 7.945993 -68.421648 33.141552 30.315765 -0.646613 -0.853946 -8.116575 -1.601452 -16.070503 28.126116 -25.557656 50.290953 -17.715232 -16.513267 34.776931 0.000000 -25.538733 0.000000 0.000000 0.000000 0.000000 -0.658380 -0.225259 -3.112784 -4.579095 -16.242734 -0.789354 0.000000 -19.779147 0.000000 -7.063425 -18.085624 -4.518332 0.000000 0.000000 0.000000 -10.653335 -2.302934 -2.159360 13.699383 -23.587298 -1.405480 0.000000 -27.504436 0.000000 -3.675020 -23.768379 -3.876290 0.000000 0.000000 0.000000 -14.894677 -5.059497 -0.151217 21.162563 -21.035633 -3.116382 0.000000 -32.748650 0.000000 -0.399775 -19.648636 2.173004 0.000000 0.000000 0.000000 -18.446696 -16.045550 -0.883540 25.199499 -16.335262 0.966872 0.000000 -24.120000 0.000000 -4.054054 -19.395545 -5.878699 0.000000 0.000000 0.000000 -168.301367 0.449959 -10.567504 0.291419 0.000000 0.000000 -88.623534 -1.587638 -2.626749 2.602105 -0.132878 4.266093 0.000000 0.000000 0.000000 8.364441 2.111469 -12.993259 0.090678 0.000665 0.000000 -85.722560 5.817681 0.101243 1.602785 -0.126521 4.265851 0.000000 0.000000 0.000000
0.000000 0.000000 0.000000 0.000000 0.000000 0.000000 0.592284 84.544266 -2.946762 88.391919 4.133720 79.841458 2.877666 0.770614 1.090055 5.321413 -0.351368 0.063787 2.912513 -1.630405 -1.818864 10.125989 0.952759 2.535834 -8.068420 0.583092 0.187810 -18.788834 0.320360 4.445333 0.000000 0.000000 0.000000 0.000000 0.000000 0.000000 0.000000 0.000000 0.000000 0.000000 0.000000 0.000000 -95.846529 -64.455572 101.474930 52.166609 -75.259623 -13.301353 18.182117 -0.323714 -0.319309 -3.610936 -5.868740 -0.754642 28.126116 -25.557656 50.290953 -17.715232 -16.513267 34.776931 0.000000 -25.538733 0.000000 0.000000 0.000000 0.000000 -0.658380 -0.225259 -3.112784 -4.579095 -16.242734 -0.789354 0.000000 -19.779147 0.000000 -7.063425 -18.085624 -4.518332 0.000000 0.000000 0.000000 -10.653335 -2.302934 -2.159360 13.699383 -23.587298 -1.405480 0.000000 -27.504436 0.000000 -3.675020 -23.768379 -3.876290 0.000000 0.000000 0.000000 -14.894677 -5.059497 -0.151217 21.162563 -21.035633 -3.116382 0.000000 -32.748650 0.000000 -0.399775 -19.648636 2.173004 0.000000 0.000000 0.000000 -18.446696 -16.045550 -0.883540 25.199499 -16.335262 0.966872 0.000000 -24.120000 0.000000 -4.054054 -19.395545 -5.878699 0.000000 0.000000 0.000000 62.057823 -69.042387 115.243995 7.938836 -68.430533 33.123501 30.282774 -0.646277 -0.853120 -8.038816 -1.529281 -16.067777 28.126116 -25.557656 50.290953 -17.715232 -16.513267 34.776931 0.000000 -25.538733 0.000000 0.000000 0.000000 0.000000 -0.658380 -0.225259 -3.112784 -4.579095 -16.242734 -0.789354 0.000000 -19.779147 0.000000 -7.063425 -18.085624 -4.518332 0.000000 0.000000 0.000000 -10.653335 -2.302934 -2.159360 13.699383 -23.587298 -1.405480 0.000000 -27.504436 0.000000 -3.675020 -23.768379 -3.876290 0.000000 0.000000 0.000000 -14.894677 -5.059497 -0.151217 21.162563 -21.035633 -3.116382 0.000000 -32.748650 0.000000 -0.399775 -19.648636 2.173004 0.000000 0.000000 0.000000 -18.446696 -16.045550 -0.883540 25.199499 -16.335262 0.966872 0.000000 -24.120000 0.000000 -4.054054 -19.395545 -5.878699 0.000000 0.000000 0.000000 -168.279158 0.448483 -10.542510 0.241265 0.000000 0.000000 -88.593332 -1.593060 -2.627170 2.596205 -0.132809 4.266095 0.000000 0.000000 0.000000 8.406930 2.127149 -12.998829 0.000856 -0.000214 0.000000 -85.679336 5.810309 0.118332 1.620685 -0.126727 4.265847 0.000000 0.000000 0.000000
0.000000 0.000000 0.000000 0.000000 0.000000 0.000000 0.587974 84.546440 -2.957736 88.391090 4.135895 79.858299 2.880056 0.765303 1.090354 5.319176 -0.353123 0.075369 2.909982 -1.628119 -1.816949 10.114687 0.943342 2.538400 -8.079098 0.569159 0.191915 -18.801775 0.299713 4.447748 0.000000 0.000000 0.000000 0.000000 0.000000 0.000000 0.000000 0.000000 0.000000 0.000000 0.000000 0.000000 -95.883426 -64.451574 101.509187 52.218066 -75.091914 -13.565661 18.155899 -0.323632 -0.319130 -3.339213 -5.313072 -1.049829 28.126116 -25.557656 50.290953 -17.715232 -16.513267 34.776931 0.000000 -25.538733 0.000000 0.000000 0.000000 0.000000 -0.658380 -0.225259 -3.112784 -4.579095 -16.242734 -0.789354 0.000000 -19.779147 0.000000 -7.063425 -18.085624 -4.518332 0.000000 0.000000 0.000000 -10.653335 -2.302934 -2.159360 13.699383 -23.587298 -1.405480 0.000000 -27.504436 0.000000 -3.675020 -23.768379 -3.876290 0.000000 0.000000 0.000000 -14.894677 -5.059497 -0.151217 21.162563 -21.035633 -3.116382 0.000000 -32.748650 0.000000 -0.399775 -19.648636 2.173004 0.000000 0.000000 0.000000 -18.446696 -16.045550 -0.883540 25.199499 -16.335262 0.966872 0.000000 -24.120000 0.000000 -4.054054 -19.395545 -5.878699 0.000000 0.000000 0.000000 62.053358 -69.054297 115.231610 7.927307 -68.441184 33.111661 30.252965 -0.645859 -0.852381 -7.969679 -1.460048 -16.063841 28.126116 -25.557656 50.290953 -17.715232 -16.513267 34.776931 0.000000 -25.538733 0.000000 0.000000 0.000000 0.000000 -0.658380 -0.225259 -3.112784 -4.579095 -16.242734 -0.789354 0.000000 -19.779147 0.000000 -7.063425 -18.085624 -4.518332 0.000000 0.000000 0.000000 -10.653335 -2.302934 -2.159360 13.699383 -23.587298 -1.405480 0.000000 -27.504436 0.000000 -3.675020 -23.768379 -3.876290 0.000000 0.000000 0.000000 -14.894677 -5.059497 -0.151217 21.162563 -21.035633 -3.116382 0.000000 -32.748650 0.000000 -0.399775 -19.648636 2.173004 0.000000 0.000000 0.000000 -18.446696 -16.045550 -0.883540 25.199499 -16.335262 0.966872 0.000000 -24.120000 0.000000 -4.054054 -19.395545 -5.878699 0.000000 0.000000 0.000000 -168.293954 0.440722 -10.518746 0.265450 0.000000 0.000000 -88.599809 -1.597380 -2.627673 2.591106 -0.132741 4.266099 0.000000 0.000000 0.000000 8.378930 2.125288 -13.007129 0.057643 -0.000392 0.000000 -85.709608 5.802248 0.133224 1.636084 -0.126893 4.265843 0.000000 0.000000 0.000000
